<svg width="48" height="48" viewBox="0 0 48 48" fill="none" xmlns="http://www.w3.org/2000/svg">
<rect width="48" height="48" rx="24" fill="white"/>
<path d="M21 14.7461L14 20.0312V31C14 32.105 14.895 33 16 33H28H32.5C33.3171 33 34 32.3171 34 31.5V20.0312L27.0352 14.7734L23.8496 16.8984L21 14.7461ZM26.9648 17.2266L32 21.0273V31H28V29H30V27H28V25H30V23H28V20.0312L25.541 18.1758L26.9648 17.2266ZM18 21H20V23H18V21ZM22 21H24V23H22V21ZM18 25H20V27H18V25ZM22 25H24V27H22V25ZM18 29H20V31H18V29ZM22 29H24V31H22V29Z" fill="#FDA33A"/>
</svg>
