<svg width="45" height="44" viewBox="0 0 45 44" fill="none" xmlns="http://www.w3.org/2000/svg">
<rect x="1.5" y="1" width="42" height="42" rx="21" fill="#C4F0D0"/>
<path d="M24.9984 13.6641L19.9984 13.6689L18.4701 15.3324H15.8334C14.9167 15.3324 14.1667 16.0824 14.1667 16.999V26.999C14.1667 27.9157 14.9167 28.6657 15.8334 28.6657H29.1667C30.0834 28.6657 30.8334 27.9157 30.8334 26.999V16.999C30.8334 16.0824 30.0834 15.3324 29.1667 15.3324H26.5365L24.9984 13.6641ZM24.2676 15.3307L25.8057 16.999H29.1667V26.999H15.8334V16.999H19.2025L20.7324 15.334L24.2676 15.3307ZM22.5 17.8324C20.1992 17.8324 18.3334 19.6982 18.3334 21.999C18.3334 24.2999 20.1992 26.1657 22.5 26.1657C24.8009 26.1657 26.6667 24.2999 26.6667 21.999C26.6667 19.6982 24.8009 17.8324 22.5 17.8324ZM22.5 19.499C23.8809 19.499 25 20.6182 25 21.999C25 23.3799 23.8809 24.499 22.5 24.499C21.1192 24.499 20 23.3799 20 21.999C20 20.6182 21.1192 19.499 22.5 19.499Z" fill="#202020"/>
<rect x="1.5" y="1" width="42" height="42" rx="21" stroke="white" stroke-width="2"/>
</svg>
