<svg width="65" height="64" viewBox="0 0 65 64" fill="none" xmlns="http://www.w3.org/2000/svg">
<rect x="0.5" width="64" height="64" rx="32" fill="#FDA33A"/>
<path d="M46.1522 40.6013L34.4228 21.088C34.0135 20.4067 33.2948 20 32.5002 20C31.7055 20 30.9868 20.4067 30.5788 21.0867L18.8482 40.6013C18.4322 41.2933 18.4215 42.1587 18.8188 42.8613C19.2148 43.564 19.9628 44 20.7708 44H44.2308C45.0375 44 45.7868 43.564 46.1828 42.8613C46.5802 42.1587 46.5682 41.2933 46.1522 40.6013ZM33.8335 40H31.1668V37.3333H33.8335V40ZM33.8335 34.6667H31.1668V28H33.8335V34.6667Z" fill="white"/>
</svg>
