<svg width="118" height="64" viewBox="0 0 118 64" fill="none" xmlns="http://www.w3.org/2000/svg">
<path d="M49.2736 42.5664V16.8697L59.4083 9.89647C61.9893 8.12027 62.6382 4.59377 60.8571 2.01981L59.8644 0.585205L41.8485 12.9825V42.5664V49.9719V62.8758H43.5961C46.7316 62.8758 49.2736 60.3407 49.2736 57.2137V49.9725H61.9299C65.1816 49.9725 67.8173 47.344 67.8173 44.1012V42.5677H49.273L49.2736 42.5664Z" fill="#32A854"/>
<path d="M59.9389 0.585205L59.902 0.639071L60.8571 2.02049C62.5186 4.42126 62.0652 7.65184 59.902 9.51668C60.0579 9.65101 60.222 9.77783 60.3956 9.89715L70.5303 16.8704V57.2137C70.5303 60.3407 73.0724 62.8758 76.2079 62.8758H77.9554V12.9825L59.9389 0.585205Z" fill="#227538"/>
<path d="M59.9013 0.638916L58.9462 2.02033C57.2847 4.42111 57.738 7.65169 59.9013 9.51653C62.0653 7.65169 62.5179 4.42179 60.8565 2.02033L59.9013 0.638916Z" fill="#195928"/>
<path d="M81.2948 4.65347H87.1508V32.3173H93.404V4.65347H99.26V0.0673828H81.2948V4.65347Z" fill="white"/>
<path d="M9.63821 33.5591C4.24781 33.5591 1.55261 35.5535 1.55261 39.5423V42.2144C1.55261 44.8382 3.31181 47.0651 6.8302 48.8951C10.3486 50.7347 12.1078 52.3418 12.1078 53.7164V56.9695C12.1078 58.2575 11.2914 58.9012 9.65804 58.9012C8.02464 58.9012 7.18846 58.2575 7.18846 56.9695V53.1355H1.55261V56.9695C1.55261 60.9583 4.25465 62.9575 9.65804 62.967C15.0484 62.967 17.7436 60.9679 17.7436 56.9695V53.368C17.7436 50.8118 15.9844 48.619 12.466 46.7889C8.94766 44.9493 7.18846 43.3954 7.18846 42.1271V39.5423C7.18846 38.2543 7.99866 37.6106 9.61838 37.6106H9.65804C11.2914 37.6201 12.1078 38.2645 12.1078 39.5423V43.3763H17.7436V39.5423C17.7436 35.5535 15.0416 33.5591 9.63821 33.5591Z" fill="white"/>
<path d="M30.7287 34.009H22.5234V62.9015H28.1593V50.2894H29.0755C30.7218 50.2894 31.9765 50.1878 32.8393 49.9846C36.437 49.1323 38.2365 47.2348 38.2365 44.2919V40.0079C38.2365 36.0191 35.7335 34.0199 30.7287 34.0097V34.009ZM32.6007 44.2912C32.6007 45.2015 32.0893 45.8063 31.0671 46.1063C30.7752 46.184 30.2371 46.2222 29.4542 46.2222H28.16V38.0606H30.1516C31.785 38.0606 32.6014 38.709 32.6014 40.0065V44.2906L32.6007 44.2912Z" fill="white"/>
<path d="M89.3804 33.5591C83.99 33.5591 81.2948 35.5535 81.2948 39.5423V56.9695C81.2948 60.9679 83.99 62.9677 89.3804 62.9677C94.7845 62.9582 97.4858 60.959 97.4858 56.9695V53.1355H91.85V56.9695C91.85 58.2575 91.0268 58.9012 89.3804 58.9012C87.734 58.9012 86.9306 58.2575 86.9306 56.9695V39.5423C86.9306 38.2543 87.7402 37.6106 89.3606 37.6106H89.4002C91.0336 37.6201 91.85 38.2638 91.85 39.5423V43.3763H97.4858V39.5423C97.4858 35.5535 94.7838 33.5591 89.3804 33.5591Z" fill="white"/>
<path d="M116.684 38.0612V34.009H102.067V62.8995H116.684V58.8479H107.703V50.2894H115.43V46.2229H107.703V38.0612H116.684Z" fill="white"/>
<path d="M26.3447 18.4262H31.8028V32.2499H38.0568V0H31.8028V13.8237H26.3447V0H20.0908V32.2499H26.3447V18.4262Z" fill="white"/>
</svg>
