<svg width="109" height="109" viewBox="0 0 109 109" fill="none" xmlns="http://www.w3.org/2000/svg">
<path d="M46.5 46H62.5V44.5C62.5 44.3674 62.4473 44.2402 62.3536 44.1464C62.2598 44.0527 62.1326 44 62 44H47C46.8674 44 46.7402 44.0527 46.6464 44.1464C46.5527 44.2402 46.5 44.3674 46.5 44.5V46Z" fill="#32A854"/>
<path d="M64.5 47H44.5C44.2348 47 43.9804 47.1054 43.7929 47.2929C43.6054 47.4804 43.5 47.7348 43.5 48V64C43.5 64.2652 43.6054 64.5196 43.7929 64.7071C43.9804 64.8946 44.2348 65 44.5 65H64.5C64.7652 65 65.0196 64.8946 65.2071 64.7071C65.3946 64.5196 65.5 64.2652 65.5 64V48C65.5 47.7348 65.3946 47.4804 65.2071 47.2929C65.0196 47.1054 64.7652 47 64.5 47ZM50.5 50.5C50.7967 50.5 51.0867 50.588 51.3334 50.7528C51.58 50.9176 51.7723 51.1519 51.8858 51.426C51.9994 51.7001 52.0291 52.0017 51.9712 52.2926C51.9133 52.5836 51.7704 52.8509 51.5607 53.0607C51.3509 53.2704 51.0836 53.4133 50.7926 53.4712C50.5017 53.5291 50.2001 53.4994 49.926 53.3858C49.6519 53.2723 49.4176 53.08 49.2528 52.8334C49.088 52.5867 49 52.2967 49 52C49 51.6022 49.158 51.2206 49.4393 50.9393C49.7206 50.658 50.1022 50.5 50.5 50.5ZM62.4325 60.75C62.3887 60.8259 62.3256 60.889 62.2497 60.9329C62.1738 60.9768 62.0877 60.9999 62 61H47.5C47.4071 61 47.3161 60.9741 47.2371 60.9253C47.1581 60.8765 47.0943 60.8067 47.0528 60.7236C47.0113 60.6406 46.9937 60.5476 47.002 60.4551C47.0104 60.3626 47.0443 60.2743 47.1 60.2L50.1 56.2C50.1429 56.1425 50.1976 56.0948 50.2605 56.0603C50.3234 56.0258 50.393 56.0052 50.4645 56C50.536 55.9941 50.608 56.004 50.6752 56.0291C50.7424 56.0541 50.8033 56.0937 50.8535 56.145L53.446 58.7375L57.6 53.2C57.6496 53.1336 57.7149 53.0806 57.79 53.0457C57.8652 53.0109 57.9478 52.9952 58.0305 53.0002C58.1132 53.0051 58.1933 53.0305 58.2638 53.0741C58.3342 53.1178 58.3927 53.1782 58.434 53.25L62.434 60.25C62.4777 60.3261 62.5005 60.4124 62.5002 60.5002C62.5 60.588 62.4766 60.6741 62.4325 60.75Z" fill="#32A854"/>
<rect x="0.5" y="0.5" width="108" height="108" rx="7.5" stroke="#D9D9D9" stroke-dasharray="4 4"/>
</svg>
