<svg width="343" height="122" viewBox="0 0 343 122" fill="none" xmlns="http://www.w3.org/2000/svg">
<path d="M163.5 35.5H179.5V34C179.5 33.8674 179.447 33.7402 179.354 33.6464C179.26 33.5527 179.133 33.5 179 33.5H164C163.867 33.5 163.74 33.5527 163.646 33.6464C163.553 33.7402 163.5 33.8674 163.5 34V35.5Z" fill="#32A854"/>
<path d="M181.5 36.5H161.5C161.235 36.5 160.98 36.6054 160.793 36.7929C160.605 36.9804 160.5 37.2348 160.5 37.5V53.5C160.5 53.7652 160.605 54.0196 160.793 54.2071C160.98 54.3946 161.235 54.5 161.5 54.5H181.5C181.765 54.5 182.02 54.3946 182.207 54.2071C182.395 54.0196 182.5 53.7652 182.5 53.5V37.5C182.5 37.2348 182.395 36.9804 182.207 36.7929C182.02 36.6054 181.765 36.5 181.5 36.5ZM167.5 40C167.797 40 168.087 40.088 168.333 40.2528C168.58 40.4176 168.772 40.6519 168.886 40.926C168.999 41.2001 169.029 41.5017 168.971 41.7926C168.913 42.0836 168.77 42.3509 168.561 42.5607C168.351 42.7704 168.084 42.9133 167.793 42.9712C167.502 43.0291 167.2 42.9994 166.926 42.8858C166.652 42.7723 166.418 42.58 166.253 42.3334C166.088 42.0867 166 41.7967 166 41.5C166 41.1022 166.158 40.7206 166.439 40.4393C166.721 40.158 167.102 40 167.5 40ZM179.433 50.25C179.389 50.3259 179.326 50.389 179.25 50.4329C179.174 50.4768 179.088 50.4999 179 50.5H164.5C164.407 50.5 164.316 50.4741 164.237 50.4253C164.158 50.3765 164.094 50.3067 164.053 50.2236C164.011 50.1406 163.994 50.0476 164.002 49.9551C164.01 49.8626 164.044 49.7743 164.1 49.7L167.1 45.7C167.143 45.6425 167.198 45.5948 167.26 45.5603C167.323 45.5258 167.393 45.5052 167.464 45.5C167.536 45.4941 167.608 45.504 167.675 45.5291C167.742 45.5541 167.803 45.5937 167.854 45.645L170.446 48.2375L174.6 42.7C174.65 42.6336 174.715 42.5806 174.79 42.5457C174.865 42.5109 174.948 42.4952 175.03 42.5002C175.113 42.5051 175.193 42.5305 175.264 42.5741C175.334 42.6178 175.393 42.6782 175.434 42.75L179.434 49.75C179.478 49.8261 179.501 49.9124 179.5 50.0002C179.5 50.088 179.477 50.1741 179.433 50.25Z" fill="#32A854"/>
<path d="M129.246 84.21C128.476 84.21 127.795 84.0513 127.202 83.734C126.614 83.4167 126.152 82.9687 125.816 82.39C125.48 81.8113 125.312 81.1347 125.312 80.36V73.927L126.348 73.92V80.227C126.348 80.7497 126.437 81.2023 126.614 81.585C126.791 81.963 127.022 82.2757 127.307 82.523C127.596 82.7657 127.911 82.9453 128.252 83.062C128.593 83.1787 128.924 83.237 129.246 83.237C129.573 83.237 129.906 83.1787 130.247 83.062C130.588 82.9453 130.9 82.7657 131.185 82.523C131.47 82.2757 131.701 81.963 131.878 81.585C132.055 81.2023 132.144 80.7497 132.144 80.227V73.92H133.18V80.36C133.18 81.1347 133.012 81.8113 132.676 82.39C132.34 82.964 131.876 83.412 131.283 83.734C130.695 84.0513 130.016 84.21 129.246 84.21ZM138.537 84.21C137.842 84.21 137.254 84.035 136.773 83.685C136.292 83.3303 135.928 82.852 135.681 82.25C135.434 81.6433 135.31 80.9643 135.31 80.213C135.31 79.4477 135.434 78.7663 135.681 78.169C135.933 77.567 136.302 77.0933 136.787 76.748C137.272 76.4027 137.87 76.23 138.579 76.23C139.27 76.23 139.862 76.405 140.357 76.755C140.852 77.105 141.23 77.581 141.491 78.183C141.757 78.785 141.89 79.4617 141.89 80.213C141.89 80.969 141.757 81.648 141.491 82.25C141.225 82.852 140.842 83.3303 140.343 83.685C139.844 84.035 139.242 84.21 138.537 84.21ZM135.135 87.36V76.44H136.059V82.131H136.171V87.36H135.135ZM138.432 83.251C138.959 83.251 139.398 83.118 139.748 82.852C140.098 82.586 140.359 82.2243 140.532 81.767C140.709 81.305 140.798 80.787 140.798 80.213C140.798 79.6437 140.712 79.1303 140.539 78.673C140.366 78.2157 140.103 77.854 139.748 77.588C139.398 77.322 138.952 77.189 138.411 77.189C137.884 77.189 137.445 77.3173 137.095 77.574C136.75 77.8307 136.491 78.1877 136.318 78.645C136.145 79.0977 136.059 79.6203 136.059 80.213C136.059 80.7963 136.145 81.319 136.318 81.781C136.491 82.2383 136.752 82.5977 137.102 82.859C137.452 83.1203 137.895 83.251 138.432 83.251ZM143.567 84V73.71H144.596V84H143.567ZM149.852 84.21C149.101 84.21 148.459 84.0397 147.927 83.699C147.395 83.3583 146.987 82.887 146.702 82.285C146.417 81.683 146.275 80.9923 146.275 80.213C146.275 79.4197 146.42 78.7243 146.709 78.127C146.998 77.5297 147.409 77.0653 147.941 76.734C148.478 76.398 149.115 76.23 149.852 76.23C150.608 76.23 151.252 76.4003 151.784 76.741C152.321 77.077 152.729 77.546 153.009 78.148C153.294 78.7453 153.436 79.4337 153.436 80.213C153.436 81.0063 153.294 81.704 153.009 82.306C152.724 82.9033 152.314 83.37 151.777 83.706C151.24 84.042 150.599 84.21 149.852 84.21ZM149.852 83.223C150.692 83.223 151.317 82.9453 151.728 82.39C152.139 81.83 152.344 81.1043 152.344 80.213C152.344 79.2983 152.136 78.5703 151.721 78.029C151.31 77.4877 150.687 77.217 149.852 77.217C149.287 77.217 148.821 77.3453 148.452 77.602C148.088 77.854 147.815 78.2063 147.633 78.659C147.456 79.107 147.367 79.625 147.367 80.213C147.367 81.123 147.577 81.8533 147.997 82.404C148.417 82.95 149.035 83.223 149.852 83.223ZM157.143 84.21C156.574 84.21 156.095 84.1073 155.708 83.902C155.325 83.6967 155.038 83.4237 154.847 83.083C154.656 82.7423 154.56 82.3713 154.56 81.97C154.56 81.5593 154.642 81.2093 154.805 80.92C154.973 80.626 155.199 80.3857 155.484 80.199C155.773 80.0123 156.107 79.87 156.485 79.772C156.868 79.6787 157.29 79.597 157.752 79.527C158.219 79.4523 158.674 79.3893 159.117 79.338C159.565 79.282 159.957 79.2283 160.293 79.177L159.929 79.401C159.943 78.6543 159.798 78.1013 159.495 77.742C159.192 77.3827 158.664 77.203 157.913 77.203C157.395 77.203 156.956 77.3197 156.597 77.553C156.242 77.7863 155.993 78.155 155.848 78.659L154.847 78.365C155.02 77.6883 155.367 77.1633 155.89 76.79C156.413 76.4167 157.092 76.23 157.927 76.23C158.618 76.23 159.203 76.3607 159.684 76.622C160.169 76.8787 160.512 77.252 160.713 77.742C160.806 77.9613 160.867 78.2063 160.895 78.477C160.923 78.7477 160.937 79.023 160.937 79.303V84H160.02V82.103L160.286 82.215C160.029 82.8637 159.63 83.3583 159.089 83.699C158.548 84.0397 157.899 84.21 157.143 84.21ZM157.262 83.321C157.743 83.321 158.163 83.2347 158.522 83.062C158.881 82.8893 159.171 82.6537 159.39 82.355C159.609 82.0517 159.752 81.711 159.817 81.333C159.873 81.0903 159.903 80.8243 159.908 80.535C159.913 80.241 159.915 80.0217 159.915 79.877L160.307 80.08C159.957 80.1267 159.577 80.1733 159.166 80.22C158.76 80.2667 158.359 80.3203 157.962 80.381C157.57 80.4417 157.215 80.514 156.898 80.598C156.683 80.6587 156.476 80.745 156.275 80.857C156.074 80.9643 155.909 81.109 155.778 81.291C155.652 81.473 155.589 81.6993 155.589 81.97C155.589 82.1893 155.643 82.4017 155.75 82.607C155.862 82.8123 156.039 82.9827 156.282 83.118C156.529 83.2533 156.856 83.321 157.262 83.321ZM165.692 84.21C164.988 84.21 164.386 84.035 163.886 83.685C163.387 83.3303 163.004 82.852 162.738 82.25C162.472 81.648 162.339 80.969 162.339 80.213C162.339 79.4617 162.47 78.785 162.731 78.183C162.997 77.581 163.378 77.105 163.872 76.755C164.367 76.405 164.96 76.23 165.65 76.23C166.36 76.23 166.957 76.4027 167.442 76.748C167.928 77.0933 168.294 77.567 168.541 78.169C168.793 78.7663 168.919 79.4477 168.919 80.213C168.919 80.9643 168.796 81.6433 168.548 82.25C168.301 82.852 167.937 83.3303 167.456 83.685C166.976 84.035 166.388 84.21 165.692 84.21ZM165.797 83.251C166.334 83.251 166.777 83.1203 167.127 82.859C167.477 82.5977 167.739 82.2383 167.911 81.781C168.084 81.319 168.17 80.7963 168.17 80.213C168.17 79.6203 168.084 79.0977 167.911 78.645C167.739 78.1877 167.477 77.8307 167.127 77.574C166.782 77.3173 166.346 77.189 165.818 77.189C165.277 77.189 164.829 77.322 164.474 77.588C164.12 77.854 163.856 78.2157 163.683 78.673C163.515 79.1303 163.431 79.6437 163.431 80.213C163.431 80.787 163.518 81.305 163.69 81.767C163.868 82.2243 164.131 82.586 164.481 82.852C164.831 83.118 165.27 83.251 165.797 83.251ZM168.17 84V78.309H168.058V73.92H169.094V84H168.17ZM177.256 84.21C176.561 84.21 175.973 84.035 175.492 83.685C175.011 83.3303 174.647 82.852 174.4 82.25C174.153 81.6433 174.029 80.9643 174.029 80.213C174.029 79.4477 174.153 78.7663 174.4 78.169C174.652 77.567 175.021 77.0933 175.506 76.748C175.991 76.4027 176.589 76.23 177.298 76.23C177.989 76.23 178.581 76.405 179.076 76.755C179.571 77.105 179.949 77.581 180.21 78.183C180.476 78.785 180.609 79.4617 180.609 80.213C180.609 80.969 180.476 81.648 180.21 82.25C179.944 82.852 179.561 83.3303 179.062 83.685C178.563 84.035 177.961 84.21 177.256 84.21ZM173.854 87.36V76.44H174.778V82.131H174.89V87.36H173.854ZM177.151 83.251C177.678 83.251 178.117 83.118 178.467 82.852C178.817 82.586 179.078 82.2243 179.251 81.767C179.428 81.305 179.517 80.787 179.517 80.213C179.517 79.6437 179.431 79.1303 179.258 78.673C179.085 78.2157 178.822 77.854 178.467 77.588C178.117 77.322 177.671 77.189 177.13 77.189C176.603 77.189 176.164 77.3173 175.814 77.574C175.469 77.8307 175.21 78.1877 175.037 78.645C174.864 79.0977 174.778 79.6203 174.778 80.213C174.778 80.7963 174.864 81.319 175.037 81.781C175.21 82.2383 175.471 82.5977 175.821 82.859C176.171 83.1203 176.614 83.251 177.151 83.251ZM187.606 84V80.143C187.606 79.723 187.566 79.338 187.487 78.988C187.408 78.6333 187.279 78.3253 187.102 78.064C186.929 77.798 186.703 77.5927 186.423 77.448C186.148 77.3033 185.812 77.231 185.415 77.231C185.051 77.231 184.729 77.294 184.449 77.42C184.174 77.546 183.94 77.728 183.749 77.966C183.562 78.1993 183.42 78.484 183.322 78.82C183.224 79.156 183.175 79.5387 183.175 79.968L182.447 79.807C182.447 79.0323 182.582 78.3813 182.853 77.854C183.124 77.3267 183.497 76.9277 183.973 76.657C184.449 76.3863 184.995 76.251 185.611 76.251C186.064 76.251 186.458 76.321 186.794 76.461C187.135 76.601 187.422 76.79 187.655 77.028C187.893 77.266 188.084 77.539 188.229 77.847C188.374 78.1503 188.479 78.4747 188.544 78.82C188.609 79.1607 188.642 79.5013 188.642 79.842V84H187.606ZM182.139 84V73.92H183.07V79.611H183.175V84H182.139ZM193.616 84.21C192.864 84.21 192.223 84.0397 191.691 83.699C191.159 83.3583 190.75 82.887 190.466 82.285C190.181 81.683 190.039 80.9923 190.039 80.213C190.039 79.4197 190.183 78.7243 190.473 78.127C190.762 77.5297 191.173 77.0653 191.705 76.734C192.241 76.398 192.878 76.23 193.616 76.23C194.372 76.23 195.016 76.4003 195.548 76.741C196.084 77.077 196.493 77.546 196.773 78.148C197.057 78.7453 197.2 79.4337 197.2 80.213C197.2 81.0063 197.057 81.704 196.773 82.306C196.488 82.9033 196.077 83.37 195.541 83.706C195.004 84.042 194.362 84.21 193.616 84.21ZM193.616 83.223C194.456 83.223 195.081 82.9453 195.492 82.39C195.902 81.83 196.108 81.1043 196.108 80.213C196.108 79.2983 195.9 78.5703 195.485 78.029C195.074 77.4877 194.451 77.217 193.616 77.217C193.051 77.217 192.584 77.3453 192.216 77.602C191.852 77.854 191.579 78.2063 191.397 78.659C191.219 79.107 191.131 79.625 191.131 80.213C191.131 81.123 191.341 81.8533 191.761 82.404C192.181 82.95 192.799 83.223 193.616 83.223ZM202.86 84C202.435 84.0887 202.015 84.1237 201.6 84.105C201.189 84.0863 200.82 83.9977 200.494 83.839C200.172 83.6803 199.927 83.433 199.759 83.097C199.623 82.817 199.549 82.5347 199.535 82.25C199.525 81.9607 199.521 81.6317 199.521 81.263V74.34H200.543V81.221C200.543 81.5383 200.545 81.8043 200.55 82.019C200.559 82.229 200.608 82.4157 200.697 82.579C200.865 82.8917 201.131 83.0783 201.495 83.139C201.863 83.1997 202.318 83.1857 202.86 83.097V84ZM197.904 77.322V76.44H202.86V77.322H197.904ZM207.233 84.21C206.481 84.21 205.84 84.0397 205.308 83.699C204.776 83.3583 204.367 82.887 204.083 82.285C203.798 81.683 203.656 80.9923 203.656 80.213C203.656 79.4197 203.8 78.7243 204.09 78.127C204.379 77.5297 204.79 77.0653 205.322 76.734C205.858 76.398 206.495 76.23 207.233 76.23C207.989 76.23 208.633 76.4003 209.165 76.741C209.701 77.077 210.11 77.546 210.39 78.148C210.674 78.7453 210.817 79.4337 210.817 80.213C210.817 81.0063 210.674 81.704 210.39 82.306C210.105 82.9033 209.694 83.37 209.158 83.706C208.621 84.042 207.979 84.21 207.233 84.21ZM207.233 83.223C208.073 83.223 208.698 82.9453 209.109 82.39C209.519 81.83 209.725 81.1043 209.725 80.213C209.725 79.2983 209.517 78.5703 209.102 78.029C208.691 77.4877 208.068 77.217 207.233 77.217C206.668 77.217 206.201 77.3453 205.833 77.602C205.469 77.854 205.196 78.2063 205.014 78.659C204.836 79.107 204.748 79.625 204.748 80.213C204.748 81.123 204.958 81.8533 205.378 82.404C205.798 82.95 206.416 83.223 207.233 83.223ZM215.114 84.203C214.227 84.203 213.497 84.0117 212.923 83.629C212.353 83.2463 212.003 82.7143 211.873 82.033L212.923 81.858C213.035 82.2873 213.289 82.6303 213.686 82.887C214.087 83.139 214.582 83.265 215.169 83.265C215.744 83.265 216.196 83.146 216.528 82.908C216.859 82.6653 217.025 82.3363 217.025 81.921C217.025 81.6877 216.971 81.4987 216.864 81.354C216.761 81.2047 216.549 81.067 216.227 80.941C215.905 80.815 215.424 80.6657 214.785 80.493C214.099 80.3063 213.562 80.1197 213.175 79.933C212.787 79.7463 212.512 79.5317 212.349 79.289C212.185 79.0417 212.104 78.7407 212.104 78.386C212.104 77.9567 212.225 77.581 212.468 77.259C212.71 76.9323 213.046 76.6803 213.476 76.503C213.905 76.321 214.404 76.23 214.974 76.23C215.543 76.23 216.052 76.3233 216.5 76.51C216.952 76.692 217.316 76.9487 217.592 77.28C217.867 77.6113 218.03 77.9963 218.082 78.435L217.032 78.624C216.962 78.1807 216.74 77.8307 216.367 77.574C215.998 77.3127 215.529 77.1773 214.96 77.168C214.423 77.154 213.987 77.2567 213.651 77.476C213.315 77.6907 213.147 77.9777 213.147 78.337C213.147 78.5377 213.207 78.7103 213.329 78.855C213.45 78.995 213.669 79.128 213.987 79.254C214.309 79.38 214.766 79.5177 215.359 79.667C216.054 79.8443 216.6 80.031 216.997 80.227C217.393 80.423 217.676 80.654 217.844 80.92C218.012 81.186 218.096 81.515 218.096 81.907C218.096 82.621 217.83 83.1833 217.298 83.594C216.77 84 216.042 84.203 215.114 84.203Z" fill="#141414"/>
<rect x="0.5" y="0.5" width="342" height="121" rx="7.5" stroke="#D9D9D9" stroke-dasharray="4 4"/>
</svg>
