<svg width="57" height="56" viewBox="0 0 57 56" fill="none" xmlns="http://www.w3.org/2000/svg">
<path d="M28.5 9.33398C26.2997 9.33398 24.1895 10.2081 22.6337 11.7639C21.0778 13.3198 20.2037 15.43 20.2037 17.6303C20.2037 19.8306 21.0778 21.9408 22.6337 23.4966C24.1895 25.0525 26.2997 25.9266 28.5 25.9266C30.7004 25.9266 32.8106 25.0525 34.3664 23.4966C35.9223 21.9408 36.7963 19.8306 36.7963 17.6303C36.7963 15.43 35.9223 13.3198 34.3664 11.7639C32.8106 10.2081 30.7004 9.33398 28.5 9.33398ZM21.8849 32.963C16.0422 34.2573 9.83337 37.0955 9.83337 41.4821V46.6673H47.1667V41.4821C47.1667 37.0955 40.9579 34.2573 35.1152 32.963C33.6011 34.977 31.2129 36.2969 28.5 36.2969C25.7872 36.2969 23.399 34.977 21.8849 32.963Z" fill="#383838"/>
</svg>
