<svg width="32" height="32" viewBox="0 0 32 32" fill="none" xmlns="http://www.w3.org/2000/svg">
<path d="M6.66667 4C5.20925 4 4 5.20925 4 6.66667V14.6667C4 16.1241 5.20925 17.3333 6.66667 17.3333H25.3333C26.7908 17.3333 28 16.1241 28 14.6667V6.66667C28 5.20925 26.7908 4 25.3333 4H6.66667ZM6.66667 6.66667H14.6667V9.33333H6.66667V6.66667ZM17.3333 6.66667H25.3333V9.33333H17.3333V6.66667ZM6.66667 12H14.6667V14.6667H6.66667V12ZM17.3333 12H25.3333V14.6667H17.3333V12ZM10.6667 18.6667L6.66667 22.6667H9.33333C9.33333 24.1556 8.15555 25.3333 6.66667 25.3333V28C9.59645 28 12 25.5964 12 22.6667H14.6667L10.6667 18.6667ZM21.3333 18.6667L17.3333 22.6667H20C20 25.5964 22.4036 28 25.3333 28V25.3333C23.8444 25.3333 22.6667 24.1556 22.6667 22.6667H25.3333L21.3333 18.6667Z" fill="#202020"/>
</svg>
