<svg width="24" height="24" viewBox="0 0 24 24" fill="none" xmlns="http://www.w3.org/2000/svg">
<path d="M21.3734 16.68C20.8559 17.8294 20.6065 18.3431 19.9409 19.3575C19.009 20.775 17.6946 22.545 16.0709 22.5562C14.6253 22.5694 14.2521 21.6131 12.289 21.63C10.3278 21.6394 9.91901 22.575 8.47151 22.56C6.84589 22.545 5.60276 20.9512 4.67089 19.5356C2.06464 15.5662 1.78901 10.9125 3.39964 8.43748C4.53964 6.68248 6.34151 5.65123 8.03464 5.65123C9.75964 5.65123 10.8434 6.59811 12.2684 6.59811C13.6521 6.59811 14.494 5.64936 16.489 5.64936C17.9965 5.64936 19.5903 6.47061 20.7303 7.88811C17.0028 9.93186 17.6084 15.255 21.3734 16.68ZM14.974 4.06498C15.6996 3.13311 16.2509 1.81873 16.0503 0.47998C14.8671 0.560606 13.4834 1.31623 12.6753 2.29498C11.9421 3.18748 11.3346 4.51123 11.5709 5.79186C12.8628 5.83311 14.1996 5.06248 14.974 4.06498Z" fill="#141414"/>
</svg>
