<svg width="24" height="24" viewBox="0 0 24 24" fill="none" xmlns="http://www.w3.org/2000/svg">
<path d="M6 17C5.71667 17 5.47917 16.9042 5.2875 16.7125C5.09583 16.5208 5 16.2833 5 16V10.975C5 10.6917 5.09583 10.4583 5.2875 10.275C5.47917 10.0917 5.71667 10 6 10C6.28333 10 6.52083 10.0958 6.7125 10.2875C6.90417 10.4792 7 10.7167 7 11V16.025C7 16.3083 6.90417 16.5417 6.7125 16.725C6.52083 16.9083 6.28333 17 6 17ZM12 17C11.7167 17 11.4792 16.9042 11.2875 16.7125C11.0958 16.5208 11 16.2833 11 16V10.975C11 10.6917 11.0958 10.4583 11.2875 10.275C11.4792 10.0917 11.7167 10 12 10C12.2833 10 12.5208 10.0958 12.7125 10.2875C12.9042 10.4792 13 10.7167 13 11V16.025C13 16.3083 12.9042 16.5417 12.7125 16.725C12.5208 16.9083 12.2833 17 12 17ZM2.975 21C2.69167 21 2.45833 20.9042 2.275 20.7125C2.09167 20.5208 2 20.2833 2 20C2 19.7167 2.09583 19.4792 2.2875 19.2875C2.47917 19.0958 2.71667 19 3 19H21.025C21.3083 19 21.5417 19.0958 21.725 19.2875C21.9083 19.4792 22 19.7167 22 20C22 20.2833 21.9042 20.5208 21.7125 20.7125C21.5208 20.9042 21.2833 21 21 21H2.975ZM18 17C17.7167 17 17.4792 16.9042 17.2875 16.7125C17.0958 16.5208 17 16.2833 17 16V10.975C17 10.6917 17.0958 10.4583 17.2875 10.275C17.4792 10.0917 17.7167 10 18 10C18.2833 10 18.5208 10.0958 18.7125 10.2875C18.9042 10.4792 19 10.7167 19 11V16.025C19 16.3083 18.9042 16.5417 18.7125 16.725C18.5208 16.9083 18.2833 17 18 17ZM12.9 1.45L21.325 5.65C21.5417 5.76667 21.7083 5.92917 21.825 6.1375C21.9417 6.34583 22 6.575 22 6.825C22 7.15833 21.8792 7.4375 21.6375 7.6625C21.3958 7.8875 21.1083 8 20.775 8H3.25C2.91667 8 2.625 7.8875 2.375 7.6625C2.125 7.4375 2 7.15833 2 6.825C2 6.575 2.05417 6.34583 2.1625 6.1375C2.27083 5.92917 2.44167 5.775 2.675 5.675L11.1 1.45C11.3833 1.31667 11.6833 1.25 12 1.25C12.3167 1.25 12.6167 1.31667 12.9 1.45ZM6.45 6H17.55L12 3.25L6.45 6Z" fill="#32A854"/>
</svg>
