<svg width="20" height="20" viewBox="0 0 20 20" fill="none" xmlns="http://www.w3.org/2000/svg">
<path d="M9.31818 3.33301C8.57291 3.33301 7.95455 3.95137 7.95455 4.69664V8.10574H3.18182C2.80526 8.10574 2.5 8.411 2.5 8.78755C2.5 9.16411 2.84913 9.45458 3.11422 9.72202C3.24375 9.8527 3.33144 10.0264 3.35627 10.2244L3.57067 11.937C3.69537 12.9356 4.25564 13.7817 5.03817 14.318L4.75729 15.4408C4.6497 15.8709 4.97498 16.2876 5.41834 16.2876C5.73102 16.2876 6.00357 16.0747 6.07941 15.7714L6.30726 14.86C6.51715 14.9007 6.73262 14.9239 6.95312 14.9239H13.0469C13.2674 14.9239 13.4829 14.9007 13.6927 14.86L13.9206 15.7714C13.9964 16.0747 14.269 16.2876 14.5817 16.2876C15.025 16.2876 15.3503 15.8709 15.2427 15.4408L14.9618 14.318C15.7442 13.782 16.3046 12.9365 16.4293 11.9383L16.6437 10.2258C16.6686 10.0272 16.7563 9.85319 16.8859 9.72228C17.1508 9.45467 17.5 9.16411 17.5 8.78755C17.5 8.411 17.1947 8.10574 16.8182 8.10574H9.31818V4.69664H11.3636V5.03755C11.3636 5.22583 11.211 5.37846 11.0227 5.37846C10.8344 5.37846 10.6818 5.53109 10.6818 5.71937V6.06028C10.6818 6.43684 10.9871 6.7421 11.3636 6.7421H12.7273C13.1038 6.7421 13.4091 6.43684 13.4091 6.06028V5.71937C13.4091 5.53109 13.2565 5.37846 13.0682 5.37846C12.8799 5.37846 12.7273 5.22583 12.7273 5.03755V4.69664C12.7273 3.95137 12.1089 3.33301 11.3636 3.33301H9.31818ZM4.54146 9.46937H15.4585C15.3796 9.65471 15.3168 9.84879 15.2907 10.0566L15.0763 11.7692C14.9479 12.7974 14.0836 13.5603 13.0469 13.5603H6.95312C5.91638 13.5603 5.05215 12.7982 4.92365 11.7692V11.7678L4.70925 10.0553C4.68326 9.84797 4.62018 9.65428 4.54146 9.46937Z" fill="#595959"/>
</svg>
