<svg width="20" height="20" viewBox="0 0 20 20" fill="none" xmlns="http://www.w3.org/2000/svg">
<path d="M3.25 15.5C3.0375 15.5 2.8595 15.428 2.716 15.284C2.572 15.1405 2.5 14.9625 2.5 14.75V11C2.5 10.6625 2.56875 10.3563 2.70625 10.0813C2.84375 9.80625 3.025 9.5625 3.25 9.35V7.25C3.25 6.625 3.46875 6.09375 3.90625 5.65625C4.34375 5.21875 4.875 5 5.5 5H8.5C8.7875 5 9.05625 5.05325 9.30625 5.15975C9.55625 5.26575 9.7875 5.4125 10 5.6C10.2125 5.4125 10.4437 5.26575 10.6937 5.15975C10.9437 5.05325 11.2125 5 11.5 5H14.5C15.125 5 15.6562 5.21875 16.0937 5.65625C16.5312 6.09375 16.75 6.625 16.75 7.25V9.35C16.975 9.5625 17.1562 9.80625 17.2937 10.0813C17.4312 10.3563 17.5 10.6625 17.5 11V14.75C17.5 14.9625 17.428 15.1405 17.284 15.284C17.1405 15.428 16.9625 15.5 16.75 15.5C16.5375 15.5 16.3595 15.428 16.216 15.284C16.072 15.1405 16 14.9625 16 14.75V14H4V14.75C4 14.9625 3.92825 15.1405 3.78475 15.284C3.64075 15.428 3.4625 15.5 3.25 15.5ZM10.75 8.75H15.25V7.25C15.25 7.0375 15.178 6.85925 15.034 6.71525C14.8905 6.57175 14.7125 6.5 14.5 6.5H11.5C11.2875 6.5 11.1095 6.57175 10.966 6.71525C10.822 6.85925 10.75 7.0375 10.75 7.25V8.75ZM4.75 8.75H9.25V7.25C9.25 7.0375 9.17825 6.85925 9.03475 6.71525C8.89075 6.57175 8.7125 6.5 8.5 6.5H5.5C5.2875 6.5 5.10925 6.57175 4.96525 6.71525C4.82175 6.85925 4.75 7.0375 4.75 7.25V8.75ZM4 12.5H16V11C16 10.7875 15.928 10.6093 15.784 10.4653C15.6405 10.3218 15.4625 10.25 15.25 10.25H4.75C4.5375 10.25 4.35925 10.3218 4.21525 10.4653C4.07175 10.6093 4 10.7875 4 11V12.5ZM16 12.5H4H16Z" fill="#595959"/>
</svg>
