<svg width="20" height="20" viewBox="0 0 20 20" fill="none" xmlns="http://www.w3.org/2000/svg">
<path d="M8.74982 5C7.23945 5 6.1376 5.93624 5.44913 6.79682C4.97313 7.39183 4.72461 7.87538 4.5788 8.18594C4.54285 8.20219 4.50851 8.22181 4.47626 8.24453C4.47626 8.24453 2.5 9.61792 2.5 11.8748C2.5 12.4477 2.65248 12.9285 2.9431 13.2676C3.23372 13.6066 3.62558 13.7636 3.95992 13.8193C4.12066 13.8461 4.27496 13.8531 4.41767 13.8498C4.61316 14.8553 5.50301 15.6247 6.56238 15.6247C7.65606 15.6247 8.56346 14.8031 8.71808 13.7497H11.9065C12.0611 14.8031 12.9685 15.6247 14.0622 15.6247C15.1638 15.6247 16.0757 14.791 16.2203 13.7266C16.5636 13.6973 16.8354 13.6286 17.0845 13.4482C17.2734 13.3115 17.4114 13.0845 17.4593 12.9014C17.5071 12.7183 17.4996 12.586 17.4996 12.4998V11.2498C17.4996 10.4946 17.2465 9.86067 16.866 9.40417C16.4856 8.94767 16.0014 8.66549 15.5441 8.48257C14.7962 8.18344 14.3163 8.19866 14.0768 8.19083C13.4938 7.46291 12.8949 6.70232 12.0932 6.10104C11.2267 5.45112 10.13 5 8.74982 5ZM9.3748 6.29147C10.1719 6.39213 10.786 6.68365 11.3437 7.10199C12.0396 7.62391 12.6364 8.35928 13.2614 9.1405C13.32 9.21369 13.3943 9.27275 13.4788 9.31332C13.5634 9.35389 13.6559 9.37493 13.7497 9.37487C13.7497 9.37487 14.4324 9.38307 15.0802 9.6422C15.4041 9.77177 15.7011 9.95832 15.9066 10.2049C16.1121 10.4515 16.2496 10.755 16.2496 11.2498V12.4436C16.2417 12.4396 16.1592 12.4578 16.014 12.4754C15.6548 11.7543 14.9167 11.2498 14.0622 11.2498C13.1977 11.2498 12.4511 11.7652 12.0969 12.4998H8.52766C8.1734 11.7652 7.42683 11.2498 6.56238 11.2498C5.66595 11.2498 4.8907 11.8007 4.55438 12.5791C4.43366 12.5961 4.28949 12.6072 4.16499 12.5865C4.03059 12.5641 3.95372 12.5257 3.89278 12.4546C3.83185 12.3835 3.74996 12.2394 3.74996 11.8748C3.74996 10.5007 4.89801 9.53554 5.09514 9.37487H10.6248C10.9699 9.37487 11.2497 9.09506 11.2497 8.74989C11.2497 8.40472 10.9699 8.12491 10.6248 8.12491H9.3748V6.29147ZM8.12484 6.34029V8.12491H6.03872C6.14913 7.95057 6.27545 7.76582 6.42567 7.57805C6.86265 7.03183 7.42926 6.53537 8.12484 6.34029ZM6.56238 12.4998C7.08754 12.4998 7.49986 12.9121 7.49986 13.4373C7.49986 13.9624 7.08754 14.3747 6.56238 14.3747C6.03723 14.3747 5.62491 13.9624 5.62491 13.4373C5.62491 12.9121 6.03723 12.4998 6.56238 12.4998ZM14.0622 12.4998C14.5873 12.4998 14.9996 12.9121 14.9996 13.4373C14.9996 13.9624 14.5873 14.3747 14.0622 14.3747C13.537 14.3747 13.1247 13.9624 13.1247 13.4373C13.1247 12.9121 13.537 12.4998 14.0622 12.4998Z" fill="#595959"/>
</svg>
