<svg width="21" height="20" viewBox="0 0 21 20" fill="none" xmlns="http://www.w3.org/2000/svg">
<path d="M10.4997 12.9798C10.3886 12.9798 10.2844 12.9625 10.1872 12.9277C10.09 12.893 9.99967 12.834 9.91634 12.7507L6.91634 9.75065C6.76356 9.59787 6.68717 9.40343 6.68717 9.16732C6.68717 8.93121 6.76356 8.73676 6.91634 8.58398C7.06912 8.43121 7.26704 8.35135 7.51009 8.3444C7.75315 8.33746 7.95106 8.41037 8.10384 8.56315L9.66634 10.1257V4.16732C9.66634 3.93121 9.7462 3.73329 9.90592 3.57357C10.0656 3.41385 10.2636 3.33398 10.4997 3.33398C10.7358 3.33398 10.9337 3.41385 11.0934 3.57357C11.2531 3.73329 11.333 3.93121 11.333 4.16732V10.1257L12.8955 8.56315C13.0483 8.41037 13.2462 8.33746 13.4893 8.3444C13.7323 8.35135 13.9302 8.43121 14.083 8.58398C14.2358 8.73676 14.3122 8.93121 14.3122 9.16732C14.3122 9.40343 14.2358 9.59787 14.083 9.75065L11.083 12.7507C10.9997 12.834 10.9094 12.893 10.8122 12.9277C10.715 12.9625 10.6108 12.9798 10.4997 12.9798ZM5.49967 16.6673C5.04134 16.6673 4.64898 16.5041 4.32259 16.1777C3.9962 15.8513 3.83301 15.459 3.83301 15.0007V13.334C3.83301 13.0979 3.91287 12.9 4.07259 12.7402C4.23231 12.5805 4.43023 12.5007 4.66634 12.5007C4.90245 12.5007 5.10037 12.5805 5.26009 12.7402C5.41981 12.9 5.49967 13.0979 5.49967 13.334V15.0007H15.4997V13.334C15.4997 13.0979 15.5795 12.9 15.7393 12.7402C15.899 12.5805 16.0969 12.5007 16.333 12.5007C16.5691 12.5007 16.767 12.5805 16.9268 12.7402C17.0865 12.9 17.1663 13.0979 17.1663 13.334V15.0007C17.1663 15.459 17.0031 15.8513 16.6768 16.1777C16.3504 16.5041 15.958 16.6673 15.4997 16.6673H5.49967Z" fill="#141414"/>
</svg>
