<svg width="32" height="32" viewBox="0 0 32 32" fill="none" xmlns="http://www.w3.org/2000/svg">
<path d="M4 4V5.33333V28H28V4H4ZM6.66667 6.66667H25.3333V25.3333H6.66667V6.66667ZM11.3333 9.33333C10.8029 9.33333 10.2942 9.54405 9.91912 9.91912C9.54405 10.2942 9.33333 10.8029 9.33333 11.3333C9.33333 11.8638 9.54405 12.3725 9.91912 12.7475C10.2942 13.1226 10.8029 13.3333 11.3333 13.3333C11.8638 13.3333 12.3725 13.1226 12.7475 12.7475C13.1226 12.3725 13.3333 11.8638 13.3333 11.3333C13.3333 10.8029 13.1226 10.2942 12.7475 9.91912C12.3725 9.54405 11.8638 9.33333 11.3333 9.33333ZM20 9.33333C19.2928 9.33333 18.6145 9.61428 18.1144 10.1144C17.6143 10.6145 17.3333 11.2928 17.3333 12C17.3333 12.7072 17.6143 13.3855 18.1144 13.8856C18.6145 14.3857 19.2928 14.6667 20 14.6667C20.7072 14.6667 21.3855 14.3857 21.8856 13.8856C22.3857 13.3855 22.6667 12.7072 22.6667 12C22.6667 11.2928 22.3857 10.6145 21.8856 10.1144C21.3855 9.61428 20.7072 9.33333 20 9.33333ZM12.6667 16C11.7826 16 10.9348 16.3512 10.3096 16.9763C9.68452 17.6014 9.33333 18.4493 9.33333 19.3333C9.33333 20.2174 9.68452 21.0652 10.3096 21.6904C10.9348 22.3155 11.7826 22.6667 12.6667 22.6667C13.5507 22.6667 14.3986 22.3155 15.0237 21.6904C15.6488 21.0652 16 20.2174 16 19.3333C16 18.4493 15.6488 17.6014 15.0237 16.9763C14.3986 16.3512 13.5507 16 12.6667 16ZM20.6667 18.6667C20.1362 18.6667 19.6275 18.8774 19.2525 19.2525C18.8774 19.6275 18.6667 20.1362 18.6667 20.6667C18.6667 21.1971 18.8774 21.7058 19.2525 22.0809C19.6275 22.456 20.1362 22.6667 20.6667 22.6667C21.1971 22.6667 21.7058 22.456 22.0809 22.0809C22.456 21.7058 22.6667 21.1971 22.6667 20.6667C22.6667 20.1362 22.456 19.6275 22.0809 19.2525C21.7058 18.8774 21.1971 18.6667 20.6667 18.6667Z" fill="#202020"/>
</svg>
