<svg width="20" height="20" viewBox="0 0 20 20" fill="none" xmlns="http://www.w3.org/2000/svg">
<path d="M10 4.16699C4.54545 4.16699 2.5 9.62154 2.5 9.62154C2.5 9.62154 4.54545 15.0761 10 15.0761C15.4545 15.0761 17.5 9.62154 17.5 9.62154C17.5 9.62154 15.4545 4.16699 10 4.16699ZM10 5.53063C13.5973 5.53063 15.4168 8.44001 16.0059 9.61888C15.4161 10.7896 13.583 13.7124 10 13.7124C6.40273 13.7124 4.58323 10.8031 3.99414 9.6242C4.5846 8.45352 6.41705 5.53063 10 5.53063ZM10 6.89427C8.49386 6.89427 7.27273 8.1154 7.27273 9.62154C7.27273 11.1277 8.49386 12.3488 10 12.3488C11.5061 12.3488 12.7273 11.1277 12.7273 9.62154C12.7273 8.1154 11.5061 6.89427 10 6.89427ZM10 8.2579C10.7534 8.2579 11.3636 8.86813 11.3636 9.62154C11.3636 10.3749 10.7534 10.9852 10 10.9852C9.24659 10.9852 8.63636 10.3749 8.63636 9.62154C8.63636 8.86813 9.24659 8.2579 10 8.2579Z" fill="#595959"/>
</svg>
