<svg width="32" height="32" viewBox="0 0 32 32" fill="none" xmlns="http://www.w3.org/2000/svg">
<rect width="32" height="32" rx="16" fill="white"/>
<path d="M19.375 9.25C17.2037 9.25 16 10.8175 16 10.8175C16 10.8175 14.7962 9.25 12.625 9.25C10.3465 9.25 8.5 11.0965 8.5 13.375C8.5 16.5033 12.184 19.5347 13.2108 20.4925C14.3935 21.595 16 23.0125 16 23.0125C16 23.0125 17.6065 21.595 18.7892 20.4925C19.816 19.5347 23.5 16.5033 23.5 13.375C23.5 11.0965 21.6535 9.25 19.375 9.25ZM18.1082 19.0825C17.9755 19.2025 17.86 19.3067 17.7662 19.3945C17.203 19.9195 16.537 20.5217 16 21.0033C15.463 20.5217 14.7963 19.9187 14.2338 19.3945C14.1393 19.3067 14.0238 19.2018 13.8918 19.0825C12.8268 18.1203 10 15.5642 10 13.375C10 11.9275 11.1775 10.75 12.625 10.75C13.9953 10.75 14.7895 11.7062 14.8105 11.731L16 13L17.1895 11.731C17.197 11.7213 18.0048 10.75 19.375 10.75C20.8225 10.75 22 11.9275 22 13.375C22 15.5642 19.1733 18.1203 18.1082 19.0825Z" fill="#202020"/>
</svg>
