<svg width="24" height="24" viewBox="0 0 24 24" fill="none" xmlns="http://www.w3.org/2000/svg">
<path d="M7 4.5C5.70684 4.5 4.60486 5.34267 4.1875 6.5H2V8.5H4.1875C4.60486 9.65733 5.70684 10.5 7 10.5C8.64501 10.5 10 9.14501 10 7.5C10 5.85499 8.64501 4.5 7 4.5ZM7 6.5C7.56413 6.5 8 6.93587 8 7.5C8 8.06413 7.56413 8.5 7 8.5C6.43587 8.5 6 8.06413 6 7.5C6 6.93587 6.43587 6.5 7 6.5ZM12 6.5V8.5H22V6.5H12ZM15 13.5C13.7068 13.5 12.6049 14.3427 12.1875 15.5H2V17.5H12.1875C12.6049 18.6573 13.7068 19.5 15 19.5C16.645 19.5 18 18.145 18 16.5C18 14.855 16.645 13.5 15 13.5ZM15 15.5C15.5641 15.5 16 15.9359 16 16.5C16 17.0641 15.5641 17.5 15 17.5C14.4359 17.5 14 17.0641 14 16.5C14 15.9359 14.4359 15.5 15 15.5ZM20 15.5V17.5H22V15.5H20Z" fill="#202020"/>
</svg>
