<svg width="32" height="32" viewBox="0 0 32 32" fill="none" xmlns="http://www.w3.org/2000/svg">
<path d="M9.33325 2.66602C7.13931 2.66602 5.33325 4.47208 5.33325 6.66602V25.3327C5.33325 27.5266 7.13931 29.3327 9.33325 29.3327H22.6666C24.8605 29.3327 26.6666 27.5266 26.6666 25.3327V6.66602C26.6666 4.47208 24.8605 2.66602 22.6666 2.66602H9.33325ZM9.33325 5.33268H22.6666C23.406 5.33268 23.9999 5.92662 23.9999 6.66602V13.3327H7.99992V6.66602C7.99992 5.92662 8.59386 5.33268 9.33325 5.33268ZM10.6666 7.99935V10.666H13.3333V7.99935H10.6666ZM7.99992 15.9993H23.9999V25.3327C23.9999 26.0721 23.406 26.666 22.6666 26.666H9.33325C8.59386 26.666 7.99992 26.0721 7.99992 25.3327V15.9993ZM10.6666 18.666V23.9993H13.3333V18.666H10.6666Z" fill="#202020"/>
</svg>
