<svg width="40" height="40" viewBox="0 0 40 40" fill="none" xmlns="http://www.w3.org/2000/svg">
<rect width="40" height="40" rx="6" fill="#FDA33A"/>
<path d="M18.7998 9C16.1486 9 13.9998 11.1488 13.9998 13.8V14.6C13.9998 17.2512 16.1486 19.4 18.7998 19.4C21.451 19.4 23.5998 17.2512 23.5998 14.6V13.8C23.5998 11.1488 21.451 9 18.7998 9ZM26.817 17.2609C25.791 17.2609 24.7657 17.6654 23.9857 18.4734C22.4177 20.0814 22.4177 22.7043 23.9857 24.3203C24.0257 24.3603 24.0815 24.4082 24.1295 24.4563C24.4575 24.7762 24.8412 25.0883 25.2092 25.2563V26.0562L26.1529 27.2406L25.1529 28.2734L26.0092 29.2563L25.2092 30.0562L26.8092 31.6562L28.4092 30.0562V25.2563C28.7772 25.0883 29.178 24.7762 29.506 24.4563C29.554 24.4083 29.6098 24.3603 29.6498 24.3203C31.2178 22.7043 31.2178 20.0814 29.6498 18.4734C28.8698 17.6654 27.843 17.2609 26.817 17.2609ZM26.817 18.8016C27.119 18.8016 27.4218 18.9209 27.6498 19.1609C28.1138 19.6329 28.1138 20.4013 27.6498 20.8813C27.1938 21.3533 26.4417 21.3533 25.9857 20.8813C25.5217 20.4012 25.5217 19.6329 25.9857 19.1609C26.2137 18.9209 26.515 18.8016 26.817 18.8016ZM18.8013 21.8016C15.5933 21.8016 11.4807 23.5374 10.2967 25.0734C9.56865 26.0254 10.2654 27.4016 11.4654 27.4016H21.9935H23.6248L23.3295 27.0328V25.6406C22.2415 24.7766 21.489 23.5211 21.281 22.0891C20.433 21.9051 19.5933 21.8016 18.8013 21.8016Z" fill="white"/>
</svg>
