<svg width="24" height="24" viewBox="0 0 24 24" fill="none" xmlns="http://www.w3.org/2000/svg">
<path d="M6 14H13C13.2833 14 13.5208 13.9042 13.7125 13.7125C13.9042 13.5208 14 13.2833 14 13V8C14 7.71667 13.9042 7.47917 13.7125 7.2875C13.5208 7.09583 13.2833 7 13 7H6C5.71667 7 5.47917 7.09583 5.2875 7.2875C5.09583 7.47917 5 7.71667 5 8V13C5 13.2833 5.09583 13.5208 5.2875 13.7125C5.47917 13.9042 5.71667 14 6 14ZM4 20C3.45 20 2.97917 19.8042 2.5875 19.4125C2.19583 19.0208 2 18.55 2 18V6C2 5.45 2.19583 4.97917 2.5875 4.5875C2.97917 4.19583 3.45 4 4 4H20C20.55 4 21.0208 4.19583 21.4125 4.5875C21.8042 4.97917 22 5.45 22 6V18C22 18.55 21.8042 19.0208 21.4125 19.4125C21.0208 19.8042 20.55 20 20 20H4ZM4 18H20V6H4V18Z" fill="#32A854"/>
</svg>
