<?xml version="1.0" standalone="no"?>
<!DOCTYPE svg PUBLIC "-//W3C//DTD SVG 20010904//EN" "http://www.w3.org/TR/2001/REC-SVG-20010904/DTD/svg10.dtd">
<svg version="1.0" xmlns="http://www.w3.org/2000/svg" width="24.000000pt" height="24.000000pt"
    viewBox="0 0 24.000000 24.000000" preserveAspectRatio="xMidYMid meet">

    <g transform="translate(0.000000,24.000000) scale(0.100000,-0.100000)" fill="#000000" stroke="none">
        <path d="M85 211 c-64 -27 -81 -110 -32 -158 60 -61 162 -19 162 67 0 66 -72
116 -130 91z m92 -33 c51 -48 15 -138 -56 -138 -47 0 -81 32 -81 79 0 72 84
109 137 59z" />
        <path d="M110 160 c0 -5 5 -10 10 -10 6 0 10 5 10 10 0 6 -4 10 -10 10 -5 0
-10 -4 -10 -10z" />
        <path d="M110 100 c0 -16 5 -30 10 -30 6 0 10 14 10 30 0 17 -4 30 -10 30 -5
0 -10 -13 -10 -30z" />
    </g>
</svg>