<svg width="24" height="24" viewBox="0 0 24 24" fill="none" xmlns="http://www.w3.org/2000/svg">
<path d="M8.29799 20.7529L8.2982 20.753C9.44955 21.2501 10.6818 21.5 12 21.5C13.3182 21.5 14.5505 21.2501 15.7018 20.753L15.702 20.7529C16.863 20.2522 17.868 19.5749 18.7214 18.7214C19.5749 17.868 20.2522 16.863 20.7529 15.702L20.753 15.7018C21.2501 14.5505 21.5 13.3182 21.5 12C21.5 10.6818 21.2501 9.44955 20.753 8.2982L20.7529 8.29799C20.2522 7.13697 19.5749 6.13202 18.7214 5.27855C17.868 4.4251 16.863 3.74747 15.702 3.24613L8.29799 20.7529ZM8.29799 20.7529C7.13697 20.2522 6.13202 19.5749 5.27855 18.7214C4.42509 17.868 3.7478 16.863 3.24713 15.702L3.24704 15.7018M8.29799 20.7529L3.24704 15.7018M3.24704 15.7018C2.74991 14.5505 2.5 13.3182 2.5 12C2.5 10.6818 2.74991 9.44955 3.24704 8.2982L3.24713 8.29799M3.24704 15.7018L3.24713 8.29799M3.24713 8.29799C3.7478 7.13697 4.42509 6.13202 5.27855 5.27855M3.24713 8.29799L5.27855 5.27855M5.27855 5.27855C6.13201 4.4251 7.13697 3.74747 8.29799 3.24613L5.27855 5.27855ZM11.6422 8.35906L11.6409 8.35783C11.5477 8.26495 11.5 8.15713 11.5 8C11.5 7.84285 11.5478 7.73434 11.6416 7.64055C11.7343 7.5478 11.8423 7.5 12 7.5C12.1574 7.5 12.2659 7.54762 12.3594 7.64055C12.4524 7.73407 12.5 7.84265 12.5 8C12.5 8.15768 12.4522 8.26569 12.3594 8.35845C12.2657 8.45223 12.1572 8.5 12 8.5C11.8429 8.5 11.7351 8.45227 11.6422 8.35906ZM12.5 11.5V16.5H11.5V11.5H12.5ZM8.2982 3.24604C9.44953 2.74958 10.6818 2.5 12 2.5C13.3182 2.5 14.5505 2.74958 15.7018 3.24604H8.2982ZM12 20.5C14.3631 20.5 16.3828 19.6743 18.0286 18.0286C19.6743 16.3828 20.5 14.3631 20.5 12C20.5 9.63686 19.6743 7.61718 18.0286 5.97145C16.3828 4.32572 14.3631 3.5 12 3.5C9.63686 3.5 7.61718 4.32571 5.97145 5.97145C4.32571 7.61718 3.5 9.63686 3.5 12C3.5 14.3631 4.32572 16.3828 5.97145 18.0286C7.61718 19.6743 9.63686 20.5 12 20.5Z" stroke="#595959"/>
</svg>
