<svg width="32" height="32" viewBox="0 0 32 32" fill="none" xmlns="http://www.w3.org/2000/svg">
<path d="M14.6667 3.97656C13.2092 3.97656 12 5.18581 12 6.64323V25.3333C12 26.7908 13.2092 28 14.6667 28H25.3333C26.7908 28 28 26.7908 28 25.3333V6.64323C28 5.18581 26.7908 3.97656 25.3333 3.97656H14.6667ZM4 4V21.3333V28H6.66667V21.3333H9.33333V13.3333C9.33333 7.52533 6.48331 4.52765 6.36198 4.40365L5.97135 4H4ZM14.6667 6.64323H25.3333V25.3333H14.6667V6.64323ZM20 8C19.6464 8 19.3072 8.14048 19.0572 8.39052C18.8071 8.64057 18.6667 8.97971 18.6667 9.33333C18.6667 9.68696 18.8071 10.0261 19.0572 10.2761C19.3072 10.5262 19.6464 10.6667 20 10.6667C20.3536 10.6667 20.6928 10.5262 20.9428 10.2761C21.1929 10.0261 21.3333 9.68696 21.3333 9.33333C21.3333 8.97971 21.1929 8.64057 20.9428 8.39052C20.6928 8.14048 20.3536 8 20 8Z" fill="#202020"/>
</svg>
