<svg width="92" height="92" viewBox="0 0 92 92" fill="none" xmlns="http://www.w3.org/2000/svg">
<path d="M91.5 26.5V16.75C91.5 14.1641 90.4728 11.6842 88.6443 9.85571C86.8158 8.02723 84.3359 7 81.75 7H68.75V3.75C68.75 2.88805 68.4076 2.0614 67.7981 1.4519C67.1886 0.84241 66.362 0.5 65.5 0.5C64.638 0.5 63.8114 0.84241 63.2019 1.4519C62.5924 2.0614 62.25 2.88805 62.25 3.75V7H29.75V3.75C29.75 2.88805 29.4076 2.0614 28.7981 1.4519C28.1886 0.84241 27.362 0.5 26.5 0.5C25.638 0.5 24.8114 0.84241 24.2019 1.4519C23.5924 2.0614 23.25 2.88805 23.25 3.75V7H10.25C7.66414 7 5.18419 8.02723 3.35571 9.85571C1.52723 11.6842 0.5 14.1641 0.5 16.75V26.5H91.5Z" fill="#75DC92"/>
<path d="M0.5 33V81.75C0.5 84.3359 1.52723 86.8158 3.35571 88.6443C5.18419 90.4728 7.66414 91.5 10.25 91.5H81.75C84.3359 91.5 86.8158 90.4728 88.6443 88.6443C90.4728 86.8158 91.5 84.3359 91.5 81.75V33H0.5ZM64.3625 51.7168L41.6125 71.2168C40.9907 71.7484 40.1912 72.026 39.3736 71.9941C38.5561 71.9621 37.7807 71.623 37.2023 71.0445L27.4523 61.2945C26.8602 60.6815 26.5327 59.8606 26.5401 59.0084C26.5475 58.1563 26.8893 57.3412 27.4918 56.7386C28.0944 56.136 28.9096 55.7942 29.7617 55.7868C30.6138 55.7794 31.4348 56.107 32.0477 56.699L39.6723 64.3235L60.1473 46.7735C60.4695 46.4831 60.8466 46.2601 61.2564 46.1177C61.6662 45.9753 62.1003 45.9163 62.5333 45.9444C62.9662 45.9724 63.3891 46.0869 63.7771 46.2809C64.1651 46.475 64.5103 46.7448 64.7924 47.0744C65.0744 47.404 65.2877 47.7867 65.4195 48.2C65.5513 48.6133 65.5991 49.0489 65.5599 49.4809C65.5208 49.913 65.3955 50.3328 65.1915 50.7157C64.9875 51.0986 64.709 51.4367 64.3722 51.7103L64.3625 51.7168Z" fill="#C4F0D0"/>
</svg>
