<svg width="18" height="18" viewBox="0 0 18 18" fill="none" xmlns="http://www.w3.org/2000/svg">
<path d="M3 15C2.5875 15 2.23438 14.8531 1.94063 14.5594C1.64687 14.2656 1.5 13.9125 1.5 13.5V4.5C1.5 4.0875 1.64687 3.73438 1.94063 3.44063C2.23438 3.14687 2.5875 3 3 3H15C15.4125 3 15.7656 3.14687 16.0594 3.44063C16.3531 3.73438 16.5 4.0875 16.5 4.5V13.5C16.5 13.9125 16.3531 14.2656 16.0594 14.5594C15.7656 14.8531 15.4125 15 15 15H3ZM3 13.5H15V6H3V13.5ZM8.2125 12.4125L5.55 9.75L6.6375 8.6625L8.2125 10.2375L11.3625 7.0875L12.45 8.175L8.2125 12.4125Z" fill="#8C8C8C"/>
</svg>
