<svg width="24" height="24" viewBox="0 0 24 24" fill="none" xmlns="http://www.w3.org/2000/svg">
<path d="M6 21.9992C5.16667 21.9992 4.45833 21.7076 3.875 21.1242C3.29167 20.5409 3 19.8326 3 18.9992V16.9992C3 16.7159 3.09583 16.4784 3.2875 16.2867C3.47917 16.0951 3.71667 15.9992 4 15.9992H6V2.72422C6 2.57422 6.06667 2.48255 6.2 2.44922C6.33333 2.41589 6.46667 2.46589 6.6 2.59922L7.5 3.49922L8.65 2.34922C8.75 2.24922 8.86667 2.19922 9 2.19922C9.13333 2.19922 9.25 2.24922 9.35 2.34922L10.5 3.49922L11.65 2.34922C11.75 2.24922 11.8667 2.19922 12 2.19922C12.1333 2.19922 12.25 2.24922 12.35 2.34922L13.5 3.49922L14.65 2.34922C14.75 2.24922 14.8667 2.19922 15 2.19922C15.1333 2.19922 15.25 2.24922 15.35 2.34922L16.5 3.49922L17.65 2.34922C17.75 2.24922 17.8667 2.19922 18 2.19922C18.1333 2.19922 18.25 2.24922 18.35 2.34922L19.5 3.49922L20.4 2.59922C20.5333 2.46589 20.6667 2.41172 20.8 2.43672C20.9333 2.46172 21 2.55755 21 2.72422V18.9992C21 19.8326 20.7083 20.5409 20.125 21.1242C19.5417 21.7076 18.8333 21.9992 18 21.9992H6ZM18 19.9992C18.2833 19.9992 18.5208 19.9034 18.7125 19.7117C18.9042 19.5201 19 19.2826 19 18.9992V4.99922H8V15.9992H16C16.2833 15.9992 16.5208 16.0951 16.7125 16.2867C16.9042 16.4784 17 16.7159 17 16.9992V18.9992C17 19.2826 17.0958 19.5201 17.2875 19.7117C17.4792 19.9034 17.7167 19.9992 18 19.9992ZM9.975 8.99922C9.69167 8.99922 9.45833 8.90339 9.275 8.71172C9.09167 8.52005 9 8.28255 9 7.99922C9 7.71589 9.09583 7.47839 9.2875 7.28672C9.47917 7.09505 9.71667 6.99922 10 6.99922H14C14.2833 6.99922 14.5208 7.09505 14.7125 7.28672C14.9042 7.47839 15 7.71589 15 7.99922C15 8.28255 14.9042 8.52005 14.7125 8.71172C14.5208 8.90339 14.2833 8.99922 14 8.99922H9.975ZM9.975 11.9992C9.69167 11.9992 9.45833 11.9034 9.275 11.7117C9.09167 11.5201 9 11.2826 9 10.9992C9 10.7159 9.09583 10.4784 9.2875 10.2867C9.47917 10.0951 9.71667 9.99922 10 9.99922H14C14.2833 9.99922 14.5208 10.0951 14.7125 10.2867C14.9042 10.4784 15 10.7159 15 10.9992C15 11.2826 14.9042 11.5201 14.7125 11.7117C14.5208 11.9034 14.2833 11.9992 14 11.9992H9.975ZM17 8.99922C16.7167 8.99922 16.4792 8.90339 16.2875 8.71172C16.0958 8.52005 16 8.28255 16 7.99922C16 7.71589 16.0958 7.47839 16.2875 7.28672C16.4792 7.09505 16.7167 6.99922 17 6.99922C17.2833 6.99922 17.5208 7.09505 17.7125 7.28672C17.9042 7.47839 18 7.71589 18 7.99922C18 8.28255 17.9042 8.52005 17.7125 8.71172C17.5208 8.90339 17.2833 8.99922 17 8.99922ZM17 11.9992C16.7167 11.9992 16.4792 11.9034 16.2875 11.7117C16.0958 11.5201 16 11.2826 16 10.9992C16 10.7159 16.0958 10.4784 16.2875 10.2867C16.4792 10.0951 16.7167 9.99922 17 9.99922C17.2833 9.99922 17.5208 10.0951 17.7125 10.2867C17.9042 10.4784 18 10.7159 18 10.9992C18 11.2826 17.9042 11.5201 17.7125 11.7117C17.5208 11.9034 17.2833 11.9992 17 11.9992ZM6 19.9992H15V17.9992H5V18.9992C5 19.2826 5.09583 19.5201 5.2875 19.7117C5.47917 19.9034 5.71667 19.9992 6 19.9992Z" fill="#32A854"/>
</svg>
