<svg width="24" height="24" viewBox="0 0 24 24" fill="none" xmlns="http://www.w3.org/2000/svg">
<path d="M3 4C3 8.539 4.84 12.874 7.966 16.034C11.126 19.16 15.461 21 20 21C20.672 21 21 20.438 21 20L21 16.49C21 15.945 20.568 15.501 20.023 15.488C19.393 15.473 18.6 15.436 18.099 15.348C17.557 15.252 16.905 15.066 16.446 14.923C16.086 14.811 15.694 14.91 15.427 15.176L13.21 17.38C11.678 16.573 10.451 15.633 9.412 14.588C8.367 13.549 7.427 12.322 6.62 10.79L8.824 8.572C9.017 8.378 9.122 8.118 9.122 7.852C9.122 7.752 9.107 7.651 9.077 7.553C8.935 7.095 8.748 6.442 8.652 5.9C8.564 5.399 8.527 4.607 8.512 3.976C8.499 3.432 8.055 3 7.51 3L4 3C3.562 3 3 3.328 3 4ZM16.426 17.003C16.927 17.145 17.372 17.25 17.752 17.317C18.08 17.375 18.492 17.418 19 17.448L19 18.966C17.71 18.878 16.437 18.62 15.215 18.208L16.426 17.003ZM6.552 5C6.582 5.508 6.625 5.921 6.683 6.248C6.75 6.628 6.855 7.072 6.997 7.574L5.793 8.785C5.38 7.563 5.123 6.289 5.034 5L6.552 5Z" fill="#202020"/>
</svg>
