<svg width="65" height="64" viewBox="0 0 65 64" fill="none" xmlns="http://www.w3.org/2000/svg">
<rect x="0.5" width="64" height="64" rx="32" fill="#32A854"/>
<path d="M36.4972 18.6641L28.4972 18.6719L26.0519 21.3333H21.8332C20.3665 21.3333 19.1665 22.5333 19.1665 24V40C19.1665 41.4667 20.3665 42.6667 21.8332 42.6667H43.1665C44.6332 42.6667 45.8332 41.4667 45.8332 40V24C45.8332 22.5333 44.6332 21.3333 43.1665 21.3333H38.9582L36.4972 18.6641ZM35.328 21.3307L37.7889 24H43.1665V40H21.8332V24H27.2238L29.6717 21.3359L35.328 21.3307ZM32.4998 25.3333C28.8185 25.3333 25.8332 28.3187 25.8332 32C25.8332 35.6813 28.8185 38.6667 32.4998 38.6667C36.1812 38.6667 39.1665 35.6813 39.1665 32C39.1665 28.3187 36.1812 25.3333 32.4998 25.3333ZM32.4998 28C34.7092 28 36.4998 29.7907 36.4998 32C36.4998 34.2093 34.7092 36 32.4998 36C30.2905 36 28.4998 34.2093 28.4998 32C28.4998 29.7907 30.2905 28 32.4998 28Z" fill="white"/>
</svg>
