<svg width="32" height="32" viewBox="0 0 32 32" fill="none" xmlns="http://www.w3.org/2000/svg">
<path d="M16.0001 2.66602C8.6223 2.66602 2.66675 8.62157 2.66675 15.9993C2.66675 23.3771 8.6223 29.3327 16.0001 29.3327C23.3779 29.3327 29.3334 23.3771 29.3334 15.9993C29.3334 8.62157 23.3779 2.66602 16.0001 2.66602ZM16.0001 5.33268C21.9556 5.33268 26.6667 10.0438 26.6667 15.9993C26.6667 21.9549 21.9556 26.666 16.0001 26.666C10.0445 26.666 5.33341 21.9549 5.33341 15.9993C5.33341 10.0438 10.0445 5.33268 16.0001 5.33268ZM13.5157 7.97591C13.3039 7.98796 13.0793 8.01731 12.8438 8.06706C11.5878 8.31639 10.5831 9.56706 10.7084 11.0671C11.1471 13.3604 13.0901 13.3895 13.9141 14.3561C14.4035 13.7375 15.1507 13.3327 16.0001 13.3327C16.4961 13.3327 16.9569 13.4756 17.3542 13.7129C17.2717 11.6591 16.6925 7.79519 13.5157 7.97591ZM21.7032 14.3613C20.4226 14.3585 19.513 15.2348 18.56 15.2858C18.6226 15.5151 18.6667 15.7513 18.6667 15.9993C18.6667 17.1007 17.999 18.0458 17.047 18.4525C18.867 19.7085 22.596 21.6843 24.224 18.2363C24.784 17.0843 24.3931 15.5274 23.1225 14.7207C22.5985 14.4614 22.1301 14.3623 21.7032 14.3613ZM16.0001 14.666C15.6465 14.666 15.3073 14.8065 15.0573 15.0565C14.8072 15.3066 14.6667 15.6457 14.6667 15.9993C14.6667 16.353 14.8072 16.6921 15.0573 16.9422C15.3073 17.1922 15.6465 17.3327 16.0001 17.3327C16.3537 17.3327 16.6928 17.1922 16.9429 16.9422C17.1929 16.6921 17.3334 16.353 17.3334 15.9993C17.3334 15.6457 17.1929 15.3066 16.9429 15.0565C16.6928 14.8065 16.3537 14.666 16.0001 14.666ZM13.3673 15.6634C11.3686 16.6207 7.82408 18.8663 10.0001 21.9863C10.7214 23.045 12.2644 23.4845 13.5964 22.7832C15.5178 21.4965 14.8182 19.7148 15.3569 18.5775C14.1969 18.2881 13.3334 17.2487 13.3334 15.9993C13.3334 15.8847 13.3539 15.7741 13.3673 15.6634Z" fill="#202020"/>
</svg>
