<svg width="25" height="24" viewBox="0 0 25 24" fill="none" xmlns="http://www.w3.org/2000/svg">
<path d="M12.5 2C6.977 2 2.5 6.477 2.5 12C2.5 17.523 6.977 22 12.5 22C18.023 22 22.5 17.523 22.5 12C22.5 6.477 18.023 2 12.5 2ZM12.5 4C16.918 4 20.5 7.582 20.5 12C20.5 13.5973 20.0254 15.0811 19.2188 16.3301L18.4492 15.7344C16.8972 14.5374 14.037 14 12.5 14C10.963 14 8.10178 14.5374 6.55078 15.7344L5.78125 16.332C4.97404 15.0828 4.5 13.5979 4.5 12C4.5 7.582 8.082 4 12.5 4ZM12.5 5.75C10.708 5.75 9.25 7.208 9.25 9C9.25 10.792 10.708 12.25 12.5 12.25C14.292 12.25 15.75 10.792 15.75 9C15.75 7.208 14.292 5.75 12.5 5.75ZM12.5 7.75C13.189 7.75 13.75 8.311 13.75 9C13.75 9.689 13.189 10.25 12.5 10.25C11.811 10.25 11.25 9.689 11.25 9C11.25 8.311 11.811 7.75 12.5 7.75ZM12.5 16C15.6007 16 17.2681 17.1685 18.0488 17.7539C16.61 19.1418 14.6569 20 12.5 20C10.3431 20 8.39002 19.1418 6.95117 17.7539C7.7319 17.1685 9.39929 16 12.5 16ZM18.4121 17.375C18.3024 17.4955 18.1929 17.6168 18.0762 17.7305C18.1926 17.6175 18.3015 17.495 18.4121 17.375Z" fill="#595959"/>
</svg>
