<svg width="65" height="64" viewBox="0 0 65 64" fill="none" xmlns="http://www.w3.org/2000/svg">
<rect x="0.5" width="64" height="64" rx="32" fill="#FDA33A"/>
<path d="M30.8998 17.333C27.3649 17.333 24.4998 20.1981 24.4998 23.733V24.7997C24.4998 28.3346 27.3649 31.1997 30.8998 31.1997C34.4347 31.1997 37.2998 28.3346 37.2998 24.7997V23.733C37.2998 20.1981 34.4347 17.333 30.8998 17.333ZM41.5894 28.3476C40.2214 28.3476 38.8544 28.8869 37.8144 29.9643C35.7237 32.1083 35.7237 35.6054 37.8144 37.7601C37.8677 37.8134 37.942 37.8773 38.006 37.9413C38.4434 38.368 38.955 38.784 39.4456 39.008V40.0747L40.704 41.6538L39.3706 43.0309L40.5123 44.3413L39.4456 45.408L41.579 47.5413L43.7123 45.408V39.008C44.2029 38.784 44.7375 38.368 45.1748 37.9413C45.2388 37.8773 45.3131 37.8134 45.3665 37.7601C47.4571 35.6054 47.4571 32.1083 45.3665 29.9643C44.3265 28.8869 42.9574 28.3476 41.5894 28.3476ZM41.5894 30.4018C41.992 30.4018 42.3958 30.5609 42.6998 30.8809C43.3185 31.5103 43.3185 32.5347 42.6998 33.1747C42.0918 33.804 41.089 33.804 40.481 33.1747C39.8624 32.5347 39.8624 31.5103 40.481 30.8809C40.785 30.5609 41.1867 30.4018 41.5894 30.4018ZM30.9019 34.4018C26.6245 34.4018 21.1409 36.7163 19.5623 38.7643C18.5916 40.0336 19.5206 41.8684 21.1206 41.8684H35.1581H37.3331L36.9394 41.3768V39.5205C35.4887 38.3685 34.4855 36.6944 34.2081 34.7851C33.0775 34.5398 31.9579 34.4018 30.9019 34.4018Z" fill="white"/>
</svg>
