<svg width="32" height="32" viewBox="0 0 32 32" fill="none" xmlns="http://www.w3.org/2000/svg">
<path d="M21.3333 5.33398C22.7907 5.33398 23.9999 6.54323 23.9999 8.00065V8.44596L29.3333 6.66732V17.334L23.9999 15.5553V16.0007C23.9999 17.4581 22.7907 18.6673 21.3333 18.6673H14.6666C14.6666 19.6526 14.1274 20.5025 13.3333 20.9642V23.972C13.3333 25.4387 12.0708 26.6673 10.6041 26.6673H2.66658V24.0007H10.6666V20.9642C9.87241 20.5025 9.33325 19.6526 9.33325 18.6673H5.33325C3.87583 18.6673 2.66658 17.4581 2.66658 16.0007V8.00065C2.66658 6.54323 3.87583 5.33398 5.33325 5.33398H21.3333ZM21.3333 8.00065H5.33325V16.0007H21.3333V14.6673V9.33398V8.00065ZM18.6666 9.33398C19.0202 9.33398 19.3593 9.47446 19.6094 9.72451C19.8594 9.97456 19.9999 10.3137 19.9999 10.6673C19.9999 11.0209 19.8594 11.3601 19.6094 11.6101C19.3593 11.8602 19.0202 12.0007 18.6666 12.0007C18.313 12.0007 17.9738 11.8602 17.7238 11.6101C17.4737 11.3601 17.3333 11.0209 17.3333 10.6673C17.3333 10.3137 17.4737 9.97456 17.7238 9.72451C17.9738 9.47446 18.313 9.33398 18.6666 9.33398ZM26.6666 10.3678L23.9999 11.2559V12.7454L26.6666 13.6361V10.3678Z" fill="#202020"/>
</svg>
