<svg width="32" height="32" viewBox="0 0 32 32" fill="none" xmlns="http://www.w3.org/2000/svg">
<path d="M4 22.1575C4.7556 21.8219 5.57321 21.6484 6.4 21.6484C7.2268 21.6484 8.0444 21.8219 8.8 22.1575C9.5556 22.4931 10.3732 22.6666 11.2 22.6666C12.0268 22.6666 12.8444 22.4931 13.6 22.1575C14.3556 21.8219 15.1732 21.6484 16 21.6484C16.8268 21.6484 17.6444 21.8219 18.4 22.1575C19.1556 22.4931 19.9732 22.6666 20.8 22.6666C21.6268 22.6666 22.4444 22.4931 23.2 22.1575C23.9556 21.8219 24.7732 21.6484 25.6 21.6484C26.4268 21.6484 27.2444 21.8219 28 22.1575" fill="#202020"/>
<path d="M4 22.1575C4.7556 21.8219 5.57321 21.6484 6.4 21.6484C7.2268 21.6484 8.0444 21.8219 8.8 22.1575C9.5556 22.4931 10.3732 22.6666 11.2 22.6666C12.0268 22.6666 12.8444 22.4931 13.6 22.1575C14.3556 21.8219 15.1732 21.6484 16 21.6484C16.8268 21.6484 17.6444 21.8219 18.4 22.1575C19.1556 22.4931 19.9732 22.6666 20.8 22.6666C21.6268 22.6666 22.4444 22.4931 23.2 22.1575C23.9556 21.8219 24.7732 21.6484 25.6 21.6484C26.4268 21.6484 27.2444 21.8219 28 22.1575" stroke="#202020" stroke-width="2" stroke-linecap="square" stroke-linejoin="round"/>
<path d="M10.6667 10.666H21.3334" stroke="#202020" stroke-width="2" stroke-linecap="round" stroke-linejoin="round"/>
<path d="M10.6667 16H21.3334" stroke="#202020" stroke-width="2" stroke-linecap="round" stroke-linejoin="round"/>
<path d="M21.3333 18.6667V6C21.3333 5.46957 21.544 4.96086 21.919 4.58579C22.2941 4.21071 22.8028 4 23.3333 4C23.8637 4 24.3724 4.21071 24.7475 4.58579C25.1225 4.96086 25.3333 5.46957 25.3333 6" stroke="#202020" stroke-width="2" stroke-linecap="square" stroke-linejoin="round"/>
<path d="M10.6667 18.6667V6C10.6667 5.46957 10.8775 4.96086 11.2525 4.58579C11.6276 4.21071 12.1363 4 12.6667 4C13.1972 4 13.7059 4.21071 14.081 4.58579C14.456 4.96086 14.6667 5.46957 14.6667 6" stroke="#202020" stroke-width="2" stroke-linecap="square" stroke-linejoin="round"/>
<path d="M4 27.4915C4.7556 27.1558 5.57321 26.9824 6.4 26.9824C7.2268 26.9824 8.0444 27.1558 8.8 27.4915C9.5556 27.8271 10.3732 28.0005 11.2 28.0005C12.0268 28.0005 12.8444 27.8271 13.6 27.4915C14.3556 27.1558 15.1732 26.9824 16 26.9824C16.8268 26.9824 17.6444 27.1558 18.4 27.4915C19.1556 27.8271 19.9732 28.0005 20.8 28.0005C21.6268 28.0005 22.4444 27.8271 23.2 27.4915C23.9556 27.1558 24.7732 26.9824 25.6 26.9824C26.4268 26.9824 27.2444 27.1558 28 27.4915" stroke="#202020" stroke-width="2" stroke-linecap="square" stroke-linejoin="round"/>
</svg>
