<svg width="40" height="40" viewBox="0 0 40 40" fill="none" xmlns="http://www.w3.org/2000/svg">
<rect width="40" height="40" rx="6" fill="#2C6ECB"/>
<path d="M30.794 19.106L30.797 19.098L20.71 10.296C20.528 10.113 20.278 10 20 10C19.722 10 19.472 10.114 19.29 10.297L9.203 19.098L9.206 19.106C9.084 19.198 9 19.336 9 19.5C9 19.776 9.224 20 9.5 20H12V28C12 28.552 12.448 29 13 29H27C27.552 29 28 28.552 28 28V20H30.5C30.776 20 31 19.776 31 19.5C31 19.336 30.916 19.198 30.794 19.106ZM20 17C21.105 17 22 17.895 22 19C22 20.105 21.105 21 20 21C18.895 21 18 20.105 18 19C18 17.895 18.895 17 20 17ZM23.5 25H16.5C16.224 25 16 24.776 16 24.5V24.301C16 22.971 18.22 22.25 20 22.25C21.78 22.25 24 22.971 24 24.301V24.5C24 24.776 23.776 25 23.5 25Z" fill="white"/>
</svg>
