<svg width="65" height="64" viewBox="0 0 65 64" fill="none" xmlns="http://www.w3.org/2000/svg">
<rect x="0.5" width="64" height="64" rx="32" fill="#FDA33A"/>
<path d="M46.8917 30.8073L46.8957 30.7967L33.4463 19.0607C33.2037 18.8167 32.8703 18.666 32.4997 18.666C32.129 18.666 31.7957 18.818 31.553 19.062L18.1037 30.7967L18.1077 30.8073C17.945 30.93 17.833 31.114 17.833 31.3327C17.833 31.7007 18.1317 31.9993 18.4997 31.9993H21.833V42.666C21.833 43.402 22.4303 43.9993 23.1663 43.9993H41.833C42.569 43.9993 43.1663 43.402 43.1663 42.666V31.9993H46.4997C46.8677 31.9993 47.1663 31.7007 47.1663 31.3327C47.1663 31.114 47.0543 30.93 46.8917 30.8073ZM32.4997 27.9993C33.973 27.9993 35.1663 29.1927 35.1663 30.666C35.1663 32.1393 33.973 33.3327 32.4997 33.3327C31.0263 33.3327 29.833 32.1393 29.833 30.666C29.833 29.1927 31.0263 27.9993 32.4997 27.9993ZM37.1663 38.666H27.833C27.465 38.666 27.1663 38.3673 27.1663 37.9993V37.734C27.1663 35.9607 30.1263 34.9993 32.4997 34.9993C34.873 34.9993 37.833 35.9607 37.833 37.734V37.9993C37.833 38.3673 37.5343 38.666 37.1663 38.666Z" fill="white"/>
</svg>
