<svg width="32" height="32" viewBox="0 0 32 32" fill="none" xmlns="http://www.w3.org/2000/svg">
<path d="M22.1746 1.27344L16.1563 7.29167L12.7266 2.60417L10.5756 4.17969L13.3725 8H6.66675C4.47345 8 2.66675 9.80671 2.66675 12V24C2.66675 26.1933 4.47345 28 6.66675 28H25.3334C27.5267 28 29.3334 26.1933 29.3334 24V12C29.3334 9.80671 27.5267 8 25.3334 8H19.2188L24.06 3.15885L22.1746 1.27344ZM6.66675 10.6667H18.6667C19.4201 10.6667 20.0001 11.2466 20.0001 12V24C20.0001 24.7534 19.4201 25.3333 18.6667 25.3333H6.66675C5.91337 25.3333 5.33341 24.7534 5.33341 24V12C5.33341 11.2466 5.91337 10.6667 6.66675 10.6667ZM22.4167 10.6667H25.3334C26.0868 10.6667 26.6667 11.2466 26.6667 12V13.3333H24.0001V16H26.6667V17.3333H24.0001V20H26.6667V24C26.6667 24.7534 26.0868 25.3333 25.3334 25.3333H22.4167C22.5682 24.9135 22.6667 24.4691 22.6667 24V12C22.6667 11.5309 22.5682 11.0865 22.4167 10.6667Z" fill="#202020"/>
</svg>
