<svg width="32" height="32" viewBox="0 0 32 32" fill="none" xmlns="http://www.w3.org/2000/svg">
<path d="M7.99992 2.66602C6.5425 2.66602 5.33325 3.87527 5.33325 5.33268V26.666C5.33325 28.1234 6.5425 29.3327 7.99992 29.3327H23.9999C25.4573 29.3327 26.6666 28.1234 26.6666 26.666V5.33268C26.6666 3.87527 25.4573 2.66602 23.9999 2.66602H7.99992ZM7.99992 5.33268H23.9999V26.666H7.99992V5.33268ZM10.6666 6.66602C10.313 6.66602 9.97382 6.80649 9.72378 7.05654C9.47373 7.30659 9.33325 7.64573 9.33325 7.99935C9.33325 8.35297 9.47373 8.69211 9.72378 8.94216C9.97382 9.19221 10.313 9.33268 10.6666 9.33268C11.0202 9.33268 11.3593 9.19221 11.6094 8.94216C11.8594 8.69211 11.9999 8.35297 11.9999 7.99935C11.9999 7.64573 11.8594 7.30659 11.6094 7.05654C11.3593 6.80649 11.0202 6.66602 10.6666 6.66602ZM14.6666 6.66602C14.313 6.66602 13.9738 6.80649 13.7238 7.05654C13.4737 7.30659 13.3333 7.64573 13.3333 7.99935C13.3333 8.35297 13.4737 8.69211 13.7238 8.94216C13.9738 9.19221 14.313 9.33268 14.6666 9.33268C15.0202 9.33268 15.3593 9.19221 15.6094 8.94216C15.8594 8.69211 15.9999 8.35297 15.9999 7.99935C15.9999 7.64573 15.8594 7.30659 15.6094 7.05654C15.3593 6.80649 15.0202 6.66602 14.6666 6.66602ZM15.9999 11.9993C12.3338 11.9993 9.33325 14.9999 9.33325 18.666C9.33325 22.3321 12.3338 25.3327 15.9999 25.3327C19.666 25.3327 22.6666 22.3321 22.6666 18.666C22.6666 14.9999 19.666 11.9993 15.9999 11.9993ZM15.9999 14.666C17.7533 14.666 19.2117 15.7765 19.7577 17.3327H12.2421C12.7882 15.7765 14.2466 14.666 15.9999 14.666ZM12.2421 19.9993H19.7577C19.2117 21.5555 17.7533 22.666 15.9999 22.666C14.2466 22.666 12.7882 21.5555 12.2421 19.9993Z" fill="#202020"/>
</svg>
