<svg width="32" height="32" viewBox="0 0 32 32" fill="none" xmlns="http://www.w3.org/2000/svg">
<path d="M15.9999 6.66602C10.4773 6.66602 5.47669 8.90412 1.85669 12.5228L4.44784 15.1139C7.5185 12.3593 11.5599 10.666 15.9999 10.666C20.4399 10.666 24.4827 12.3579 27.552 15.1139L30.1405 12.5254C26.5219 8.90539 21.5226 6.66602 15.9999 6.66602ZM15.9999 13.3327C12.2946 13.3327 8.91598 14.7234 6.33065 16.9967L9.15877 19.8249C11.0134 18.2715 13.3986 17.3327 15.9999 17.3327C18.6013 17.3327 20.9877 18.2702 22.8411 19.8249L25.6666 16.9993C23.0826 14.7247 19.7053 13.3327 15.9999 13.3327ZM15.9999 19.9993C14.1333 19.9993 12.4199 20.6486 11.0572 21.7233L15.9999 26.666L20.9426 21.7233C19.58 20.6486 17.8666 19.9993 15.9999 19.9993Z" fill="#202020"/>
</svg>
